<svg width="1280" height="720" viewBox="0 0 1280 720" fill="none" xmlns="http://www.w3.org/2000/svg">
  <rect width="1280" height="720" fill="#1A1A1A"/>
  <path d="M640 360C640 397.614 609.614 428 572 428C534.386 428 504 397.614 504 360C504 322.386 534.386 292 572 292C609.614 292 640 322.386 640 360Z" fill="#333333"/>
  <path d="M640 360C640 397.614 609.614 428 572 428C534.386 428 504 397.614 504 360C504 322.386 534.386 292 572 292C609.614 292 640 322.386 640 360Z" stroke="#4A4A4A" stroke-width="2"/>
  <path d="M572 320V400M532 360H612" stroke="#4A4A4A" stroke-width="2"/>
</svg> 